<svg width="300" height="300" viewBox="0 0 300 300" fill="none" xmlns="http://www.w3.org/2000/svg">
<path d="M46.0046 249.5L32.0046 172.5V133.5L74.0046 41L114.005 11.5L132.005 4L156.005 2.5L172.505 4L204.505 15.5L224.505 23.5L240.005 41L246.505 78.5L240.005 187.5V260.5L201.505 288.5L172.505 298.5H149.005L121.505 295.5L92.0046 284.5L46.0046 249.5Z" fill="#D9D9D9"/>
<path d="M299.745 145.56C299.745 145.56 306.685 0 146.705 0C5.22527 0 0.80526 139.63 0.80526 139.63C0.80526 139.63 -20.0057 300 149.965 300C312.985 300 299.745 145.56 299.745 145.56ZM101.945 94.697C131.962 76.333 170.311 87.5569 184.68 115.173C187.404 120.407 187.75 128.464 186.025 133.955C180.07 152.911 166.011 163.542 146.713 168.058C152.402 163.187 156.931 157.664 158.372 150.033C159.123 146.417 159.106 142.683 158.324 139.073C157.541 135.463 156.01 132.058 153.829 129.077C150.41 124.379 145.553 120.922 139.995 119.228C134.436 117.534 128.477 117.695 123.018 119.688C111.137 124.199 104.629 135.042 105.802 148.371C106.892 160.752 116.286 168.776 133.863 171.824C131.236 173.214 129.213 174.238 127.234 175.341C119.182 179.752 112.175 185.847 106.69 193.209C104.906 195.617 103.679 195.811 100.963 194.15C65.6246 172.54 63.354 118.306 101.945 94.697ZM75.4963 228.227C69.8194 229.668 64.3183 231.801 58.5153 233.704C61.3538 214.553 83.7803 196.916 102.745 198.928C97.2508 206.498 94.0433 215.484 93.5033 224.822C87.2013 225.982 81.2623 226.763 75.4963 228.227ZM196.286 41.247C201.896 41.4531 207.516 41.3679 213.13 41.5008C214.532 41.5934 215.924 41.7874 217.298 42.0815C216.042 44.0093 214.625 45.8269 213.062 47.5147C211.055 49.3848 208.787 51.2133 205.896 48.3707C205.2 47.687 203.557 47.8439 202.347 47.8279C196.765 47.7546 191.175 47.5762 185.601 47.7866C180.764 47.9416 175.944 48.4338 171.176 49.2596C170.282 49.4201 168.946 52.3911 169.357 53.4866C170.326 56.0719 171.74 58.9229 173.835 60.5764C181.575 66.6864 189.807 72.1724 197.583 78.2404C205.139 84.137 212.172 90.5984 216.458 99.4934C222.042 111.083 222.205 123.236 219.797 135.443C215.776 155.821 205.464 172.704 188.765 184.967C182.036 189.908 173.705 192.713 165.998 196.262C159.22 199.385 152.243 202.074 145.449 205.163C133.2 210.733 126.316 224.028 128.341 237.851C130.199 250.536 141.328 261.122 154.076 263.307C169.368 265.929 185.147 255.991 188.888 240.447C193.094 222.969 183.598 207.364 165.823 202.634C165.04 202.426 164.254 202.229 162.622 201.807C167.376 199.683 171.483 198.169 175.275 196.083C181.889 192.443 188.382 188.589 194.756 184.521C196.63 183.322 197.642 183.321 199.241 184.703C211.466 195.273 218.759 208.421 220.804 224.542C224.188 251.226 211.557 275.74 187.732 288.304C150.872 307.743 105.767 285.618 97.6258 244.752C90.652 209.749 115.356 177.998 145.088 171.868C157.875 169.232 169.568 163.909 178.658 154.061C184.523 147.707 187.366 142.255 188.335 139.795C190.139 135.185 191.062 130.277 191.056 125.326C190.861 121.043 189.855 116.836 188.091 112.928C184.987 105.853 173.096 94.5982 170.152 92.2242L142.152 70.3032C141.164 69.4906 140.052 69.5495 137.644 69.7127C134.783 69.9066 127.469 70.3116 124.313 69.4846C126.866 67.5525 133.826 64.7395 136.815 62.4776C127.741 56.3479 117.385 58.5618 107.874 56.7315C110.073 52.6356 120.955 46.3415 127.144 45.6405C126.777 42.1842 126.213 38.7517 125.456 35.3595C125.078 33.9678 123.525 32.6187 122.17 31.824C118.884 29.8973 115.4 28.3073 111.621 26.3913C115.004 24.2043 118.925 22.9914 122.953 22.8858C126.768 22.7407 130.585 23.1126 134.301 23.9914C141.043 25.5319 146.425 24.5263 151.789 19.9434C147.567 18.2432 143.345 16.6899 139.251 14.8527C135.216 13.0136 131.284 10.9579 127.472 8.69438C138.094 10.1699 148.368 14.1529 159.229 12.6978C159.321 12.2041 159.414 11.7105 159.506 11.2169C151.387 9.32698 143.267 7.43708 134.277 5.34448C149.317 3.96758 163.319 3.74048 176.578 10.1986C180.309 12.0159 184.213 13.5201 187.789 15.5958C189.533 16.6082 190.708 18.6036 192.139 20.1552C193.275 21.3877 194.188 23.0389 195.585 23.7816C200.885 26.6 206.719 26.7107 212.663 26.5695C212.707 25.8925 212.749 25.2581 212.793 24.5762C218.776 26.4455 225.508 33.3441 225.497 38.3822C215.806 38.3822 206.123 38.3452 196.441 38.4361C195.407 38.4458 194.379 39.2017 193.348 39.6115C194.328 40.1821 195.291 41.2109 196.29 41.2477L196.286 41.247Z" fill="#88171A"/>
<path d="M183.785 26.906C183.59 27.0286 183.425 27.1952 183.306 27.3926C183.186 27.59 183.114 27.8126 183.095 28.0427C183.077 28.2729 183.113 28.5041 183.2 28.718C183.287 28.9319 183.422 29.1225 183.596 29.2746C183.742 29.5319 183.938 29.7576 184.172 29.9385C184.406 30.1194 184.674 30.252 184.96 30.3285C185.246 30.4049 185.544 30.4238 185.838 30.384C186.131 30.3442 186.413 30.2464 186.668 30.0965C187.601 29.626 188.516 29.1251 189.643 28.53C188.735 27.755 188.007 27.1152 187.258 26.4976C185.94 25.4116 184.847 26.0938 183.785 26.906Z" fill="#88171A"/>
<path d="M19.2903 15V24.6452H28.9355H38.5806H48.2258H57.871H67.5161H77.1613V34.2903H86.8064V43.9355H96.4516V53.5807H106.097V63.2258H115.742H125.387H135.032H144.677H154.323H163.968V53.5807H173.613V43.9355H183.258V34.2903H192.903H202.548V43.9355H212.194V53.5807H221.839H231.484H241.129H250.774H260.419H270.065H279.71V43.9355H289.355V34.2903H299V24.6452V15H289.355H279.71H270.065H260.419H250.774H241.129H231.484H221.839H212.194H202.548H192.903H183.258H173.613H163.968H154.323H144.677H135.032H125.387H115.742H106.097H96.4516H86.8064H77.1613H67.5161H57.871H48.2258H38.5806H28.9355H19.2903ZM19.2903 24.6452H9.64516H0V34.2903H9.64516H19.2903V24.6452Z" fill="black"/>
<path d="M96.4516 24.6452V34.2903H106.097V24.6452H96.4516ZM106.097 34.2903V43.9355H115.742V34.2903H106.097ZM115.742 34.2903H125.387V24.6452H115.742V34.2903ZM125.387 34.2903V43.9355H135.032V34.2903H125.387ZM135.032 43.9355V53.5807H144.677V43.9355H135.032ZM125.387 43.9355H115.742V53.5807H125.387V43.9355Z" fill="white"/>
<path d="M212.194 24.6452H221.839V34.2903H231.484V24.6452H241.129V34.2903H250.774V43.9355H241.129V34.2903H231.484V43.9355H221.839V34.2903H212.194V24.6452Z" fill="white"/>
</svg>
